# xmcd
#
# Track frame offsets: 
#        150
#        11533
#        25444
#        38020
#        51141
#        61496
#        72728
#        86435
#        97404
#        108618
#        119934
#        132465
#        145393
#        160331
#        176894
#        190428
#        203945
#        217214
#        229967
#        243753
#        257094
#        270981
#
# Disc length: 3811 seconds
#
# Revision: 0
# Processed by: cddbd v1.5.2PL0 Copyright (c) Steve Scherf et al.
# Submitted via: ExactAudioCopy v0.99pb4
#
DISCID=620ee116
DTITLE=Various Artist - The Roots of Grateful Dead
DYEAR=1900
DGENRE=Blues
TTITLE0=It Hurts Me Too - Tampa Red
TTITLE1=Viola Lee Blues - Cannon's Jug Stompers
TTITLE2=On The Road Again - The Memphis Jug Band
TTITLE3=Going Down The Road Feeling Bad - Cliff Carlisle
TTITLE4=Sitting On Top Of The World - Bill Monroe
TTITLE5=Walkin' Blues - Robert Johnson
TTITLE6=I'm A King Bee - Slim Harpo
TTITLE7=Mystery Train - Elvis Presley
TTITLE8=Who Do You Love? - Bo Diddley
TTITLE9=Big River - Johnny Cash
TTITLE10=I'm So Lonesome I Should Cry - Hank Williams
TTITLE11=Blues Stay Away From Me - The Delmore Brothers
TTITLE12=In The Jailhouse Now - Jimmie Rodgers
TTITLE13=Minglewood Blues - Cannon's Jug Stompers
TTITLE14=See See Rider - Big Bill Broonzy
TTITLE15=Katie Mae - Lightnin' Hopkins
TTITLE16=Stagger Lee - Mississipi John Hurt
TTITLE17=Cocaine Habit Blues - The Memphis Jug Band
TTITLE18=Sitting On Top Of The World - The Mississipi Sheiks
TTITLE19=Stealin', Stealin' - The Memphis Jug Band
TTITLE20=Kassie Jones Part One - Furry Lewis
TTITLE21=Big Railroad Blues - Cannon's Jug Stompers
EXTD=
EXTT0=
EXTT1=
EXTT2=
EXTT3=
EXTT4=
EXTT5=
EXTT6=
EXTT7=
EXTT8=
EXTT9=
EXTT10=
EXTT11=
EXTT12=
EXTT13=
EXTT14=
EXTT15=
EXTT16=
EXTT17=
EXTT18=
EXTT19=
EXTT20=
EXTT21=
PLAYORDER=
